<svg xmlns="http://www.w3.org/2000/svg" xmlns:xlink="http://www.w3.org/1999/xlink" width="500" zoomAndPan="magnify" viewBox="0 0 375 374.999991" height="500" preserveAspectRatio="xMidYMid meet" version="1.0"><defs><g/></defs><rect x="-37.5" width="450" fill="#ffffff" y="-37.499999" height="449.999989" fill-opacity="1"/><rect x="-37.5" width="450" fill="#f1f1f1" y="-37.499999" height="449.999989" fill-opacity="1"/><g fill="#c2d3e1" fill-opacity="1"><g transform="translate(109.181467, 231.831254)"><g><path d="M 43.84375 -50.15625 C 48.15625 -49.65625 52.238281 -48.550781 56.09375 -46.84375 C 59.945312 -45.144531 63.097656 -42.617188 65.546875 -39.265625 C 68.003906 -35.910156 69.234375 -31.53125 69.234375 -26.125 C 69.234375 -21.019531 68.128906 -16.816406 65.921875 -13.515625 C 63.722656 -10.210938 60.96875 -7.632812 57.65625 -5.78125 C 54.351562 -3.925781 50.972656 -2.570312 47.515625 -1.71875 C 44.066406 -0.875 40.988281 -0.347656 38.28125 -0.140625 C 35.582031 0.0546875 33.832031 0.15625 33.03125 0.15625 L 7.203125 0.15625 L 7.203125 -94.3125 L 35.734375 -94.3125 C 37.140625 -94.3125 39.039062 -94.207031 41.4375 -94 C 43.84375 -93.800781 46.445312 -93.351562 49.25 -92.65625 C 52.0625 -91.957031 54.742188 -90.878906 57.296875 -89.421875 C 59.847656 -87.972656 61.921875 -86.019531 63.515625 -83.5625 C 65.117188 -81.113281 65.921875 -77.988281 65.921875 -74.1875 C 65.921875 -69.175781 64.796875 -65.066406 62.546875 -61.859375 C 60.296875 -58.660156 57.492188 -56.132812 54.140625 -54.28125 C 50.785156 -52.4375 47.351562 -51.0625 43.84375 -50.15625 Z M 30.03125 -91.75 L 18.015625 -91.75 L 18.015625 -50.765625 L 26.125 -50.765625 C 34.9375 -50.765625 41.894531 -52.539062 47 -56.09375 C 52.101562 -59.644531 54.65625 -65.125 54.65625 -72.53125 C 54.65625 -79.84375 52.378906 -84.875 47.828125 -87.625 C 43.273438 -90.375 37.34375 -91.75 30.03125 -91.75 Z M 26.125 -2.40625 C 31.9375 -2.40625 37.242188 -3.003906 42.046875 -4.203125 C 46.847656 -5.398438 50.703125 -7.601562 53.609375 -10.8125 C 56.515625 -14.019531 57.96875 -18.578125 57.96875 -24.484375 C 57.96875 -28.484375 57.21875 -32.285156 55.71875 -35.890625 C 54.21875 -39.492188 51.460938 -42.445312 47.453125 -44.75 C 43.453125 -47.050781 37.644531 -48.203125 30.03125 -48.203125 L 18.015625 -48.203125 L 18.015625 -2.40625 Z M 26.125 -2.40625 "/></g></g></g><g fill="#c2d3e1" fill-opacity="1"><g transform="translate(184.413628, 231.831254)"><g><path d="M 7.203125 0.15625 L 7.203125 -94.3125 L 18.015625 -94.3125 L 18.015625 0.15625 Z M 29.734375 -54.515625 L 76.28125 0.15625 L 62.171875 0.15625 L 20.578125 -48.65625 L 65.03125 -94.3125 L 68.484375 -94.3125 Z M 29.734375 -54.515625 "/></g></g></g></svg>